<mxfile host="app.diagrams.net" agent="Mozilla/5.0 (Windows NT 10.0; Win64; x64) AppleWebKit/537.36 (KHTML, like Gecko) Chrome/131.0.0.0 Safari/537.36 OPR/116.0.0.0" version="26.1.0">
  <diagram name="Página-1" id="3VCIAeI6OqypKG_uyWhA">
    <mxGraphModel dx="2024" dy="1856" grid="1" gridSize="10" guides="1" tooltips="1" connect="1" arrows="1" fold="1" page="1" pageScale="1" pageWidth="827" pageHeight="1169" background="none" math="0" shadow="0">
      <root>
        <mxCell id="0" />
        <mxCell id="1" parent="0" />
        <mxCell id="vjFru39B6Pw3wGVtXZ9i-1" value="Proprietário" style="whiteSpace=wrap;html=1;align=center;" vertex="1" parent="1">
          <mxGeometry x="-200" y="80" width="100" height="40" as="geometry" />
        </mxCell>
        <mxCell id="vjFru39B6Pw3wGVtXZ9i-2" value="Imóveis" style="whiteSpace=wrap;html=1;align=center;" vertex="1" parent="1">
          <mxGeometry x="-200" y="400" width="100" height="40" as="geometry" />
        </mxCell>
        <mxCell id="vjFru39B6Pw3wGVtXZ9i-3" value="Um proprietário possui imóveis" style="shape=note;size=20;whiteSpace=wrap;html=1;" vertex="1" parent="1">
          <mxGeometry x="-50" y="245" width="90" height="50" as="geometry" />
        </mxCell>
        <mxCell id="vjFru39B6Pw3wGVtXZ9i-4" value="Possui" style="shape=rhombus;perimeter=rhombusPerimeter;whiteSpace=wrap;html=1;align=center;" vertex="1" parent="1">
          <mxGeometry x="-210" y="245" width="120" height="60" as="geometry" />
        </mxCell>
        <mxCell id="vjFru39B6Pw3wGVtXZ9i-5" value="" style="edgeStyle=entityRelationEdgeStyle;fontSize=12;html=1;endArrow=ERoneToMany;rounded=0;exitX=1;exitY=0.5;exitDx=0;exitDy=0;entryX=1;entryY=0.5;entryDx=0;entryDy=0;" edge="1" parent="1" source="vjFru39B6Pw3wGVtXZ9i-1" target="vjFru39B6Pw3wGVtXZ9i-2">
          <mxGeometry width="100" height="100" relative="1" as="geometry">
            <mxPoint x="62" y="119" as="sourcePoint" />
            <mxPoint x="80" y="320" as="targetPoint" />
            <Array as="points">
              <mxPoint x="682" y="169" />
              <mxPoint x="402" y="249" />
              <mxPoint x="462" y="239" />
              <mxPoint x="692" y="169" />
              <mxPoint x="692" y="169" />
              <mxPoint x="632" y="169" />
              <mxPoint x="702" y="159" />
            </Array>
          </mxGeometry>
        </mxCell>
        <mxCell id="vjFru39B6Pw3wGVtXZ9i-16" style="edgeStyle=orthogonalEdgeStyle;rounded=0;orthogonalLoop=1;jettySize=auto;html=1;exitX=0.5;exitY=1;exitDx=0;exitDy=0;entryX=0.5;entryY=0;entryDx=0;entryDy=0;" edge="1" parent="1" source="vjFru39B6Pw3wGVtXZ9i-7" target="vjFru39B6Pw3wGVtXZ9i-1">
          <mxGeometry relative="1" as="geometry" />
        </mxCell>
        <mxCell id="vjFru39B6Pw3wGVtXZ9i-7" value="Nome" style="ellipse;whiteSpace=wrap;html=1;align=center;" vertex="1" parent="1">
          <mxGeometry x="-190" y="20" width="100" height="40" as="geometry" />
        </mxCell>
        <mxCell id="vjFru39B6Pw3wGVtXZ9i-17" style="edgeStyle=orthogonalEdgeStyle;rounded=0;orthogonalLoop=1;jettySize=auto;html=1;exitX=0;exitY=1;exitDx=0;exitDy=0;entryX=1;entryY=0;entryDx=0;entryDy=0;" edge="1" parent="1" source="vjFru39B6Pw3wGVtXZ9i-8" target="vjFru39B6Pw3wGVtXZ9i-1">
          <mxGeometry relative="1" as="geometry" />
        </mxCell>
        <mxCell id="vjFru39B6Pw3wGVtXZ9i-8" value="Endereço" style="ellipse;whiteSpace=wrap;html=1;align=center;" vertex="1" parent="1">
          <mxGeometry x="-80" y="20" width="100" height="40" as="geometry" />
        </mxCell>
        <mxCell id="vjFru39B6Pw3wGVtXZ9i-21" style="edgeStyle=orthogonalEdgeStyle;rounded=0;orthogonalLoop=1;jettySize=auto;html=1;exitX=0;exitY=0;exitDx=0;exitDy=0;" edge="1" parent="1" source="vjFru39B6Pw3wGVtXZ9i-9" target="vjFru39B6Pw3wGVtXZ9i-1">
          <mxGeometry relative="1" as="geometry" />
        </mxCell>
        <mxCell id="vjFru39B6Pw3wGVtXZ9i-9" value="Telefone" style="ellipse;whiteSpace=wrap;html=1;align=center;" vertex="1" parent="1">
          <mxGeometry x="-60" y="160" width="100" height="40" as="geometry" />
        </mxCell>
        <mxCell id="vjFru39B6Pw3wGVtXZ9i-18" style="edgeStyle=orthogonalEdgeStyle;rounded=0;orthogonalLoop=1;jettySize=auto;html=1;exitX=0;exitY=0.5;exitDx=0;exitDy=0;entryX=1;entryY=0.5;entryDx=0;entryDy=0;" edge="1" parent="1" source="vjFru39B6Pw3wGVtXZ9i-10" target="vjFru39B6Pw3wGVtXZ9i-1">
          <mxGeometry relative="1" as="geometry" />
        </mxCell>
        <mxCell id="vjFru39B6Pw3wGVtXZ9i-10" value="Data&amp;nbsp; nasc" style="ellipse;whiteSpace=wrap;html=1;align=center;" vertex="1" parent="1">
          <mxGeometry x="-60" y="100" width="100" height="40" as="geometry" />
        </mxCell>
        <mxCell id="vjFru39B6Pw3wGVtXZ9i-11" value="Endereço" style="ellipse;whiteSpace=wrap;html=1;align=center;" vertex="1" parent="1">
          <mxGeometry x="-300" y="150" width="100" height="40" as="geometry" />
        </mxCell>
        <mxCell id="vjFru39B6Pw3wGVtXZ9i-19" style="edgeStyle=orthogonalEdgeStyle;rounded=0;orthogonalLoop=1;jettySize=auto;html=1;exitX=1;exitY=0.5;exitDx=0;exitDy=0;entryX=0;entryY=0.5;entryDx=0;entryDy=0;" edge="1" parent="1" source="vjFru39B6Pw3wGVtXZ9i-12" target="vjFru39B6Pw3wGVtXZ9i-1">
          <mxGeometry relative="1" as="geometry" />
        </mxCell>
        <mxCell id="vjFru39B6Pw3wGVtXZ9i-12" value="Email" style="ellipse;whiteSpace=wrap;html=1;align=center;" vertex="1" parent="1">
          <mxGeometry x="-330" y="80" width="100" height="40" as="geometry" />
        </mxCell>
        <mxCell id="vjFru39B6Pw3wGVtXZ9i-15" style="edgeStyle=orthogonalEdgeStyle;rounded=0;orthogonalLoop=1;jettySize=auto;html=1;exitX=1;exitY=1;exitDx=0;exitDy=0;entryX=0;entryY=0;entryDx=0;entryDy=0;" edge="1" parent="1" source="vjFru39B6Pw3wGVtXZ9i-13" target="vjFru39B6Pw3wGVtXZ9i-1">
          <mxGeometry relative="1" as="geometry" />
        </mxCell>
        <mxCell id="vjFru39B6Pw3wGVtXZ9i-13" value="RG" style="ellipse;whiteSpace=wrap;html=1;align=center;fontStyle=4;" vertex="1" parent="1">
          <mxGeometry x="-310" y="20" width="100" height="40" as="geometry" />
        </mxCell>
        <mxCell id="vjFru39B6Pw3wGVtXZ9i-20" style="edgeStyle=orthogonalEdgeStyle;rounded=0;orthogonalLoop=1;jettySize=auto;html=1;exitX=1;exitY=0;exitDx=0;exitDy=0;entryX=0.105;entryY=0.997;entryDx=0;entryDy=0;entryPerimeter=0;" edge="1" parent="1" source="vjFru39B6Pw3wGVtXZ9i-11" target="vjFru39B6Pw3wGVtXZ9i-1">
          <mxGeometry relative="1" as="geometry" />
        </mxCell>
        <mxCell id="vjFru39B6Pw3wGVtXZ9i-29" style="edgeStyle=orthogonalEdgeStyle;rounded=0;orthogonalLoop=1;jettySize=auto;html=1;exitX=0.5;exitY=1;exitDx=0;exitDy=0;entryX=0.5;entryY=0;entryDx=0;entryDy=0;" edge="1" parent="1" source="vjFru39B6Pw3wGVtXZ9i-22" target="vjFru39B6Pw3wGVtXZ9i-2">
          <mxGeometry relative="1" as="geometry" />
        </mxCell>
        <mxCell id="vjFru39B6Pw3wGVtXZ9i-22" value="Tamanho" style="ellipse;whiteSpace=wrap;html=1;align=center;" vertex="1" parent="1">
          <mxGeometry x="-200" y="330" width="100" height="40" as="geometry" />
        </mxCell>
        <mxCell id="vjFru39B6Pw3wGVtXZ9i-28" style="edgeStyle=orthogonalEdgeStyle;rounded=0;orthogonalLoop=1;jettySize=auto;html=1;exitX=1;exitY=1;exitDx=0;exitDy=0;" edge="1" parent="1" source="vjFru39B6Pw3wGVtXZ9i-24" target="vjFru39B6Pw3wGVtXZ9i-2">
          <mxGeometry relative="1" as="geometry" />
        </mxCell>
        <mxCell id="vjFru39B6Pw3wGVtXZ9i-24" value="Valor" style="ellipse;whiteSpace=wrap;html=1;align=center;" vertex="1" parent="1">
          <mxGeometry x="-320" y="360" width="100" height="40" as="geometry" />
        </mxCell>
        <mxCell id="vjFru39B6Pw3wGVtXZ9i-31" style="edgeStyle=orthogonalEdgeStyle;rounded=0;orthogonalLoop=1;jettySize=auto;html=1;exitX=0.5;exitY=1;exitDx=0;exitDy=0;entryX=1;entryY=0.75;entryDx=0;entryDy=0;" edge="1" parent="1" source="vjFru39B6Pw3wGVtXZ9i-25" target="vjFru39B6Pw3wGVtXZ9i-2">
          <mxGeometry relative="1" as="geometry" />
        </mxCell>
        <mxCell id="vjFru39B6Pw3wGVtXZ9i-25" value="Tipo" style="ellipse;whiteSpace=wrap;html=1;align=center;" vertex="1" parent="1">
          <mxGeometry x="-60" y="350" width="100" height="40" as="geometry" />
        </mxCell>
        <mxCell id="vjFru39B6Pw3wGVtXZ9i-27" style="edgeStyle=orthogonalEdgeStyle;rounded=0;orthogonalLoop=1;jettySize=auto;html=1;exitX=0;exitY=0;exitDx=0;exitDy=0;" edge="1" parent="1" target="vjFru39B6Pw3wGVtXZ9i-2">
          <mxGeometry relative="1" as="geometry">
            <mxPoint x="-185.14552060383517" y="475.77443213654306" as="sourcePoint" />
          </mxGeometry>
        </mxCell>
        <mxCell id="vjFru39B6Pw3wGVtXZ9i-32" value="&lt;b&gt;ALUGA &lt;/b&gt;um imóvel" style="shape=note;size=20;whiteSpace=wrap;html=1;" vertex="1" parent="1">
          <mxGeometry x="130" y="380" width="140" height="40" as="geometry" />
        </mxCell>
        <mxCell id="vjFru39B6Pw3wGVtXZ9i-33" value="Aluga" style="shape=rhombus;perimeter=rhombusPerimeter;whiteSpace=wrap;html=1;align=center;" vertex="1" parent="1">
          <mxGeometry x="170" y="420" width="120" height="60" as="geometry" />
        </mxCell>
        <mxCell id="vjFru39B6Pw3wGVtXZ9i-34" value="Enquilino" style="whiteSpace=wrap;html=1;align=center;" vertex="1" parent="1">
          <mxGeometry x="390" y="400" width="100" height="40" as="geometry" />
        </mxCell>
        <mxCell id="vjFru39B6Pw3wGVtXZ9i-36" style="edgeStyle=orthogonalEdgeStyle;rounded=0;orthogonalLoop=1;jettySize=auto;html=1;exitX=0;exitY=0.5;exitDx=0;exitDy=0;entryX=0.946;entryY=0.498;entryDx=0;entryDy=0;entryPerimeter=0;" edge="1" parent="1" source="vjFru39B6Pw3wGVtXZ9i-34" target="vjFru39B6Pw3wGVtXZ9i-33">
          <mxGeometry relative="1" as="geometry" />
        </mxCell>
        <mxCell id="vjFru39B6Pw3wGVtXZ9i-37" value="" style="edgeStyle=entityRelationEdgeStyle;fontSize=12;html=1;endArrow=ERoneToMany;rounded=0;exitX=0;exitY=0.5;exitDx=0;exitDy=0;" edge="1" parent="1" source="vjFru39B6Pw3wGVtXZ9i-33" target="vjFru39B6Pw3wGVtXZ9i-2">
          <mxGeometry width="100" height="100" relative="1" as="geometry">
            <mxPoint x="50" y="310" as="sourcePoint" />
            <mxPoint x="150" y="210" as="targetPoint" />
          </mxGeometry>
        </mxCell>
        <mxCell id="vjFru39B6Pw3wGVtXZ9i-38" value="RG do fiador" style="ellipse;whiteSpace=wrap;html=1;align=center;fontStyle=4;" vertex="1" parent="1">
          <mxGeometry x="320" y="240" width="100" height="40" as="geometry" />
        </mxCell>
        <mxCell id="vjFru39B6Pw3wGVtXZ9i-62" style="edgeStyle=orthogonalEdgeStyle;rounded=0;orthogonalLoop=1;jettySize=auto;html=1;exitX=0;exitY=1;exitDx=0;exitDy=0;entryX=1;entryY=0.25;entryDx=0;entryDy=0;" edge="1" parent="1" source="vjFru39B6Pw3wGVtXZ9i-39" target="vjFru39B6Pw3wGVtXZ9i-34">
          <mxGeometry relative="1" as="geometry" />
        </mxCell>
        <mxCell id="vjFru39B6Pw3wGVtXZ9i-39" value="Nome" style="ellipse;whiteSpace=wrap;html=1;align=center;" vertex="1" parent="1">
          <mxGeometry x="500" y="320" width="100" height="40" as="geometry" />
        </mxCell>
        <mxCell id="vjFru39B6Pw3wGVtXZ9i-48" style="edgeStyle=orthogonalEdgeStyle;rounded=0;orthogonalLoop=1;jettySize=auto;html=1;exitX=0;exitY=0.5;exitDx=0;exitDy=0;" edge="1" parent="1" source="vjFru39B6Pw3wGVtXZ9i-40" target="vjFru39B6Pw3wGVtXZ9i-34">
          <mxGeometry relative="1" as="geometry" />
        </mxCell>
        <mxCell id="vjFru39B6Pw3wGVtXZ9i-40" value="Telefone" style="ellipse;whiteSpace=wrap;html=1;align=center;" vertex="1" parent="1">
          <mxGeometry x="540" y="390" width="100" height="40" as="geometry" />
        </mxCell>
        <mxCell id="vjFru39B6Pw3wGVtXZ9i-47" style="edgeStyle=orthogonalEdgeStyle;rounded=0;orthogonalLoop=1;jettySize=auto;html=1;exitX=0;exitY=0;exitDx=0;exitDy=0;entryX=0.75;entryY=1;entryDx=0;entryDy=0;" edge="1" parent="1" source="vjFru39B6Pw3wGVtXZ9i-41" target="vjFru39B6Pw3wGVtXZ9i-34">
          <mxGeometry relative="1" as="geometry" />
        </mxCell>
        <mxCell id="vjFru39B6Pw3wGVtXZ9i-41" value="Email" style="ellipse;whiteSpace=wrap;html=1;align=center;" vertex="1" parent="1">
          <mxGeometry x="500" y="470" width="100" height="40" as="geometry" />
        </mxCell>
        <mxCell id="vjFru39B6Pw3wGVtXZ9i-46" value="" style="edgeStyle=orthogonalEdgeStyle;rounded=0;orthogonalLoop=1;jettySize=auto;html=1;" edge="1" parent="1" source="vjFru39B6Pw3wGVtXZ9i-42" target="vjFru39B6Pw3wGVtXZ9i-34">
          <mxGeometry relative="1" as="geometry" />
        </mxCell>
        <mxCell id="vjFru39B6Pw3wGVtXZ9i-42" value="Renda" style="ellipse;whiteSpace=wrap;html=1;align=center;" vertex="1" parent="1">
          <mxGeometry x="400" y="520" width="100" height="40" as="geometry" />
        </mxCell>
        <mxCell id="vjFru39B6Pw3wGVtXZ9i-45" style="edgeStyle=orthogonalEdgeStyle;rounded=0;orthogonalLoop=1;jettySize=auto;html=1;exitX=1;exitY=1;exitDx=0;exitDy=0;entryX=0;entryY=0.25;entryDx=0;entryDy=0;" edge="1" parent="1" source="vjFru39B6Pw3wGVtXZ9i-44" target="vjFru39B6Pw3wGVtXZ9i-34">
          <mxGeometry relative="1" as="geometry" />
        </mxCell>
        <mxCell id="vjFru39B6Pw3wGVtXZ9i-44" value="Estado Civil" style="ellipse;whiteSpace=wrap;html=1;align=center;" vertex="1" parent="1">
          <mxGeometry x="300" y="340" width="100" height="40" as="geometry" />
        </mxCell>
        <mxCell id="vjFru39B6Pw3wGVtXZ9i-50" style="edgeStyle=orthogonalEdgeStyle;rounded=0;orthogonalLoop=1;jettySize=auto;html=1;exitX=0.5;exitY=1;exitDx=0;exitDy=0;entryX=0.382;entryY=-0.032;entryDx=0;entryDy=0;entryPerimeter=0;" edge="1" parent="1" source="vjFru39B6Pw3wGVtXZ9i-38" target="vjFru39B6Pw3wGVtXZ9i-34">
          <mxGeometry relative="1" as="geometry" />
        </mxCell>
        <mxCell id="vjFru39B6Pw3wGVtXZ9i-51" value="Escritura" style="ellipse;whiteSpace=wrap;html=1;align=center;fontStyle=4;" vertex="1" parent="1">
          <mxGeometry x="-230" y="470" width="100" height="40" as="geometry" />
        </mxCell>
        <mxCell id="vjFru39B6Pw3wGVtXZ9i-53" style="edgeStyle=orthogonalEdgeStyle;rounded=0;orthogonalLoop=1;jettySize=auto;html=1;exitX=0;exitY=0;exitDx=0;exitDy=0;entryX=0.75;entryY=1;entryDx=0;entryDy=0;" edge="1" parent="1" source="vjFru39B6Pw3wGVtXZ9i-52" target="vjFru39B6Pw3wGVtXZ9i-2">
          <mxGeometry relative="1" as="geometry" />
        </mxCell>
        <mxCell id="vjFru39B6Pw3wGVtXZ9i-52" value="Endereço" style="ellipse;whiteSpace=wrap;html=1;align=center;" vertex="1" parent="1">
          <mxGeometry x="-120" y="470" width="100" height="40" as="geometry" />
        </mxCell>
        <mxCell id="vjFru39B6Pw3wGVtXZ9i-54" value="RG" style="ellipse;whiteSpace=wrap;html=1;align=center;fontStyle=4;" vertex="1" parent="1">
          <mxGeometry x="280" y="500" width="100" height="40" as="geometry" />
        </mxCell>
        <mxCell id="vjFru39B6Pw3wGVtXZ9i-55" style="edgeStyle=orthogonalEdgeStyle;rounded=0;orthogonalLoop=1;jettySize=auto;html=1;exitX=1;exitY=0;exitDx=0;exitDy=0;entryX=0.111;entryY=0.968;entryDx=0;entryDy=0;entryPerimeter=0;" edge="1" parent="1" source="vjFru39B6Pw3wGVtXZ9i-54" target="vjFru39B6Pw3wGVtXZ9i-34">
          <mxGeometry relative="1" as="geometry" />
        </mxCell>
        <mxCell id="vjFru39B6Pw3wGVtXZ9i-60" style="edgeStyle=orthogonalEdgeStyle;rounded=0;orthogonalLoop=1;jettySize=auto;html=1;exitX=1;exitY=0.5;exitDx=0;exitDy=0;" edge="1" parent="1" source="vjFru39B6Pw3wGVtXZ9i-56" target="vjFru39B6Pw3wGVtXZ9i-58">
          <mxGeometry relative="1" as="geometry" />
        </mxCell>
        <mxCell id="vjFru39B6Pw3wGVtXZ9i-81" style="edgeStyle=orthogonalEdgeStyle;rounded=0;orthogonalLoop=1;jettySize=auto;html=1;exitX=0;exitY=0.25;exitDx=0;exitDy=0;entryX=1;entryY=0.5;entryDx=0;entryDy=0;" edge="1" parent="1" source="vjFru39B6Pw3wGVtXZ9i-56" target="vjFru39B6Pw3wGVtXZ9i-78">
          <mxGeometry relative="1" as="geometry" />
        </mxCell>
        <mxCell id="vjFru39B6Pw3wGVtXZ9i-56" value="Corretor" style="whiteSpace=wrap;html=1;align=center;" vertex="1" parent="1">
          <mxGeometry x="390" y="80" width="100" height="40" as="geometry" />
        </mxCell>
        <mxCell id="vjFru39B6Pw3wGVtXZ9i-57" value="&lt;b&gt;Corretor atende varios inquilinos&lt;/b&gt;" style="shape=note;size=20;whiteSpace=wrap;html=1;" vertex="1" parent="1">
          <mxGeometry x="540" y="200" width="160" height="40" as="geometry" />
        </mxCell>
        <mxCell id="vjFru39B6Pw3wGVtXZ9i-58" value="Atender" style="shape=rhombus;perimeter=rhombusPerimeter;whiteSpace=wrap;html=1;align=center;" vertex="1" parent="1">
          <mxGeometry x="414" y="150" width="120" height="60" as="geometry" />
        </mxCell>
        <mxCell id="vjFru39B6Pw3wGVtXZ9i-64" value="" style="edgeStyle=entityRelationEdgeStyle;fontSize=12;html=1;endArrow=ERoneToMany;rounded=0;exitX=0.5;exitY=1;exitDx=0;exitDy=0;entryX=0.75;entryY=0;entryDx=0;entryDy=0;" edge="1" parent="1" source="vjFru39B6Pw3wGVtXZ9i-58" target="vjFru39B6Pw3wGVtXZ9i-34">
          <mxGeometry width="100" height="100" relative="1" as="geometry">
            <mxPoint x="140" y="370" as="sourcePoint" />
            <mxPoint x="490" y="280" as="targetPoint" />
            <Array as="points">
              <mxPoint x="460" y="230" />
              <mxPoint x="540" y="270" />
            </Array>
          </mxGeometry>
        </mxCell>
        <mxCell id="vjFru39B6Pw3wGVtXZ9i-65" value="RG" style="ellipse;whiteSpace=wrap;html=1;align=center;fontStyle=4;" vertex="1" parent="1">
          <mxGeometry x="250" y="30" width="100" height="40" as="geometry" />
        </mxCell>
        <mxCell id="vjFru39B6Pw3wGVtXZ9i-72" style="edgeStyle=orthogonalEdgeStyle;rounded=0;orthogonalLoop=1;jettySize=auto;html=1;exitX=0.5;exitY=1;exitDx=0;exitDy=0;" edge="1" parent="1" source="vjFru39B6Pw3wGVtXZ9i-66" target="vjFru39B6Pw3wGVtXZ9i-56">
          <mxGeometry relative="1" as="geometry" />
        </mxCell>
        <mxCell id="vjFru39B6Pw3wGVtXZ9i-66" value="Nome" style="ellipse;whiteSpace=wrap;html=1;align=center;" vertex="1" parent="1">
          <mxGeometry x="400" y="-10" width="100" height="40" as="geometry" />
        </mxCell>
        <mxCell id="vjFru39B6Pw3wGVtXZ9i-73" style="edgeStyle=orthogonalEdgeStyle;rounded=0;orthogonalLoop=1;jettySize=auto;html=1;exitX=0;exitY=1;exitDx=0;exitDy=0;entryX=1;entryY=0;entryDx=0;entryDy=0;" edge="1" parent="1" source="vjFru39B6Pw3wGVtXZ9i-67" target="vjFru39B6Pw3wGVtXZ9i-56">
          <mxGeometry relative="1" as="geometry" />
        </mxCell>
        <mxCell id="vjFru39B6Pw3wGVtXZ9i-67" value="Email" style="ellipse;whiteSpace=wrap;html=1;align=center;" vertex="1" parent="1">
          <mxGeometry x="560" y="20" width="100" height="40" as="geometry" />
        </mxCell>
        <mxCell id="vjFru39B6Pw3wGVtXZ9i-70" style="edgeStyle=orthogonalEdgeStyle;rounded=0;orthogonalLoop=1;jettySize=auto;html=1;exitX=1;exitY=0.5;exitDx=0;exitDy=0;entryX=0;entryY=0.75;entryDx=0;entryDy=0;" edge="1" parent="1" source="vjFru39B6Pw3wGVtXZ9i-68" target="vjFru39B6Pw3wGVtXZ9i-56">
          <mxGeometry relative="1" as="geometry" />
        </mxCell>
        <mxCell id="vjFru39B6Pw3wGVtXZ9i-68" value="Telefone" style="ellipse;whiteSpace=wrap;html=1;align=center;" vertex="1" parent="1">
          <mxGeometry x="250" y="110" width="100" height="40" as="geometry" />
        </mxCell>
        <mxCell id="vjFru39B6Pw3wGVtXZ9i-74" style="edgeStyle=orthogonalEdgeStyle;rounded=0;orthogonalLoop=1;jettySize=auto;html=1;exitX=0;exitY=0.5;exitDx=0;exitDy=0;entryX=1;entryY=0.75;entryDx=0;entryDy=0;" edge="1" parent="1" source="vjFru39B6Pw3wGVtXZ9i-69" target="vjFru39B6Pw3wGVtXZ9i-56">
          <mxGeometry relative="1" as="geometry" />
        </mxCell>
        <mxCell id="vjFru39B6Pw3wGVtXZ9i-69" value="Endereço" style="ellipse;whiteSpace=wrap;html=1;align=center;" vertex="1" parent="1">
          <mxGeometry x="570" y="90" width="100" height="40" as="geometry" />
        </mxCell>
        <mxCell id="vjFru39B6Pw3wGVtXZ9i-71" style="edgeStyle=orthogonalEdgeStyle;rounded=0;orthogonalLoop=1;jettySize=auto;html=1;exitX=1;exitY=0.5;exitDx=0;exitDy=0;entryX=0.146;entryY=0.064;entryDx=0;entryDy=0;entryPerimeter=0;" edge="1" parent="1" source="vjFru39B6Pw3wGVtXZ9i-65" target="vjFru39B6Pw3wGVtXZ9i-56">
          <mxGeometry relative="1" as="geometry" />
        </mxCell>
        <mxCell id="vjFru39B6Pw3wGVtXZ9i-76" style="edgeStyle=orthogonalEdgeStyle;rounded=0;orthogonalLoop=1;jettySize=auto;html=1;exitX=1;exitY=0;exitDx=0;exitDy=0;entryX=0;entryY=1;entryDx=0;entryDy=0;" edge="1" parent="1" source="vjFru39B6Pw3wGVtXZ9i-75" target="vjFru39B6Pw3wGVtXZ9i-56">
          <mxGeometry relative="1" as="geometry" />
        </mxCell>
        <mxCell id="vjFru39B6Pw3wGVtXZ9i-75" value="CRECI" style="ellipse;whiteSpace=wrap;html=1;align=center;" vertex="1" parent="1">
          <mxGeometry x="250" y="180" width="100" height="40" as="geometry" />
        </mxCell>
        <mxCell id="vjFru39B6Pw3wGVtXZ9i-82" style="edgeStyle=orthogonalEdgeStyle;rounded=0;orthogonalLoop=1;jettySize=auto;html=1;exitX=0;exitY=0.5;exitDx=0;exitDy=0;entryX=1;entryY=0.25;entryDx=0;entryDy=0;" edge="1" parent="1" source="vjFru39B6Pw3wGVtXZ9i-78" target="vjFru39B6Pw3wGVtXZ9i-1">
          <mxGeometry relative="1" as="geometry" />
        </mxCell>
        <mxCell id="vjFru39B6Pw3wGVtXZ9i-78" value="Contata" style="shape=rhombus;perimeter=rhombusPerimeter;whiteSpace=wrap;html=1;align=center;" vertex="1" parent="1">
          <mxGeometry x="90" y="60" width="120" height="60" as="geometry" />
        </mxCell>
        <mxCell id="vjFru39B6Pw3wGVtXZ9i-79" value="Faz contato" style="shape=note;size=20;whiteSpace=wrap;html=1;" vertex="1" parent="1">
          <mxGeometry x="100" width="100" height="40" as="geometry" />
        </mxCell>
      </root>
    </mxGraphModel>
  </diagram>
</mxfile>
